# xmcd
#
# Track frame offsets:
#	150
#	19019
#	41271
#	60137
#
# Disc length: 1096 seconds
#
# Revision: 1
# Processed by: cddbd v1.5.1PL0 Copyright (c) Steve Scherf et al.
# Submitted via: CDex 1.50Beta5
#
DISCID=1f044604
DTITLE=R16（ヒョータ・Cv：櫻井 孝宏、まりん・Cv：鈴村 健一） - 沈まない太陽
DYEAR=2003
DGENRE=Pop
TTITLE0=沈まない太陽
TTITLE1=傾いた月
TTITLE2=沈まない太陽（Karaoke）
TTITLE3=傾いた月（Karaoke）
EXTD=
EXTT0=
EXTT1=
EXTT2=
EXTT3=
PLAYORDER=
